<svg width="33" height="59" viewBox="0 0 33 59" fill="none" xmlns="http://www.w3.org/2000/svg">
<path fill-rule="evenodd" clip-rule="evenodd" d="M19.8218 18.4384V13.101L26.6072 13.1006L26.6073 10.2705C26.6073 8.70731 27.8731 7.44006 29.4346 7.44006C30.9961 7.44006 32.2619 8.70731 32.2619 10.2705V16.1741C32.2619 17.4246 31.2493 18.4384 30.0001 18.4384H19.8218Z" fill="#65E09C"/>
<path fill-rule="evenodd" clip-rule="evenodd" d="M1 21.5115V16.4167C1 14.8535 2.26583 13.5862 3.82731 13.5862C5.38879 13.5862 6.65462 14.8535 6.65462 16.4167L6.65426 19.2465H10.0463L10.0474 6.22702C10.0474 2.78793 12.8322 0 16.2675 0C19.7027 0 22.4875 2.78793 22.4875 6.22702V38.4943H10.0474L10.0463 24.9071L4.39277 24.9081C2.519 24.9081 1 23.3874 1 21.5115Z" fill="#28C76F"/>
<path fill-rule="evenodd" clip-rule="evenodd" d="M1.43604 29H30.1579L28.1034 57.1269C28.0472 57.8964 27.4228 58.4912 26.6713 58.4912H4.92259C4.17113 58.4912 3.54673 57.8964 3.49052 57.1269L1.43604 29Z" fill="#FFC83B"/>
<path fill-rule="evenodd" clip-rule="evenodd" d="M1.43609 29H30.158C30.9511 29 31.5941 29.6602 31.5941 30.4746V36.3728C31.5941 37.1872 30.9511 37.8474 30.158 37.8474H1.43609C0.642961 37.8474 0 37.1872 0 36.3728V30.4746C0 29.6602 0.642961 29 1.43609 29Z" fill="#1665FA"/>
</svg>
