<svg width="47" height="104" viewBox="0 0 47 104" fill="none" xmlns="http://www.w3.org/2000/svg">
<path fill-rule="evenodd" clip-rule="evenodd" d="M36.4501 11L37 11.3749C32.8794 17.2648 30.2379 23.1286 28.596 29.5257L28.4655 30.0409C27.3589 34.4751 26.8601 38.1626 26.162 45.7252L25.8794 48.8052C25.8166 49.4749 25.758 50.0802 25.6998 50.6571L25.6649 51L25 50.9335L25.1049 49.8853L25.6553 43.9771C26.3045 37.2234 26.8277 33.729 27.9481 29.3636C29.5603 23.0824 32.1268 17.3056 36.0863 11.5255L36.4501 11Z" fill="#02B596"/>
<path fill-rule="evenodd" clip-rule="evenodd" d="M41.0702 3.17247C41.4902 3.41495 41.4131 5.5844 40.5846 8.01264C42.1566 8.37985 43.3307 9.04985 43.3298 9.37778C43.3284 9.86333 41.0462 11.3035 38.4504 11.6348C37.2964 12.1876 35.7255 11.4447 35.2248 10.2661L35.2145 10.2711C33.8586 7.71136 34.2631 4.66476 34.777 4.43978C35.0953 4.30048 36.124 4.90273 37.1144 6.0221C38.8054 4.08596 40.6495 2.92961 41.0702 3.17247Z" fill="url(#paint0_linear_114_308)"/>
<path fill-rule="evenodd" clip-rule="evenodd" d="M32.0541 6.39177C34.3875 7.27104 36.1898 8.33523 36.6212 10.8799C39.9521 10.0674 41.0513 11.4572 42.9096 12.6592C41.0185 13.0186 38.5443 13.6267 35.8072 11.9907C33.4296 10.5079 32.7131 8.24979 32.0541 6.39177Z" fill="#02B596"/>
<path fill-rule="evenodd" clip-rule="evenodd" d="M5.00154 9.88116C5.37304 9.56944 7.38529 10.3839 9.38373 11.9929C10.2665 10.6413 11.2976 9.7671 11.6055 9.88016C12.0613 10.0476 12.634 12.6847 12.0575 15.2373C12.1823 16.5107 10.9469 17.7328 9.66812 17.8002L9.66925 17.8116C6.8002 18.2102 4.07568 16.7881 4.04003 16.2283C4.01802 15.8815 4.93578 15.1208 6.32637 14.573C5.08534 12.3218 4.62945 10.1934 5.00154 9.88116Z" fill="url(#paint1_linear_114_308)"/>
<path fill-rule="evenodd" clip-rule="evenodd" d="M4.94294 19.4549C6.56725 17.563 8.18369 16.2333 10.7225 16.6983C11.0982 13.2903 12.7801 12.7328 14.5452 11.3977C14.2361 13.2976 13.6379 15.2126 11.1644 17.225C8.95787 18.9521 6.91429 19.4712 4.94294 19.4549Z" fill="#02B596"/>
<path fill-rule="evenodd" clip-rule="evenodd" d="M10.469 17C15.2031 22.0543 18.3572 27.4406 20.4501 33.6136L20.6344 34.1659C22.0821 38.5737 22.8892 42.7642 23.8757 49.9932L24 50.9129L23.3607 51L23.1759 49.6392C22.1812 42.4241 21.357 38.2995 19.8397 33.8241C17.8303 27.8974 14.832 22.7116 10.3654 17.841L10 17.4468L10.469 17Z" fill="#02B596"/>
<path fill-rule="evenodd" clip-rule="evenodd" d="M26 54C22.9018 42.7973 15.2351 38.835 3 42.1132C12.1604 45.1508 19.0764 49.1131 23.7481 54H26Z" fill="#02D3AF"/>
<path fill-rule="evenodd" clip-rule="evenodd" d="M27 53C30.077 42.3019 36.7437 37.735 47 39.2994C40.7708 44.295 34.8497 48.8619 29.2366 53H27Z" fill="#02B596"/>
<path fill-rule="evenodd" clip-rule="evenodd" d="M24.8774 52.5353C25.7222 44.3144 29.8939 38.0378 37.3926 33.7056C33.6301 42.3224 29.9946 48.5036 26.4863 52.2492L24.8774 52.5353Z" fill="#02D3AF"/>
<path fill-rule="evenodd" clip-rule="evenodd" d="M23.9848 53C22.5305 48.4675 21.0838 42.1368 20 36C25.3577 38.3238 27.0786 47.5817 25.3577 53H23.9848Z" fill="#02B596"/>
<path d="M16.151 50.0491H35.8485C36.9531 50.0491 37.8485 50.9445 37.8485 52.0491C37.8485 52.0976 37.8468 52.1462 37.8432 52.1946L34.2431 101.544C34.1669 102.589 33.2966 103.398 32.2484 103.398H19.7511C18.7029 103.398 17.8326 102.589 17.7564 101.544L14.1563 52.1946C14.0759 51.0929 14.9038 50.1347 16.0055 50.0544C16.0539 50.0508 16.1024 50.0491 16.151 50.0491Z" fill="#FFC83B"/>
<mask id="mask0_114_308" style="mask-type:alpha" maskUnits="userSpaceOnUse" x="14" y="50" width="24" height="54">
<path d="M16.151 50.0491H35.8485C36.9531 50.0491 37.8485 50.9445 37.8485 52.0491C37.8485 52.0976 37.8468 52.1462 37.8432 52.1946L34.2431 101.544C34.1669 102.589 33.2966 103.398 32.2484 103.398H19.7511C18.7029 103.398 17.8326 102.589 17.7564 101.544L14.1563 52.1946C14.0759 51.0929 14.9038 50.1347 16.0055 50.0544C16.0539 50.0508 16.1024 50.0491 16.151 50.0491Z" fill="#968BFF"/>
</mask>
<g mask="url(#mask0_114_308)">
<path fill-rule="evenodd" clip-rule="evenodd" d="M10.7563 48.699H19.8374C14.21 69.5183 31.1506 83.8315 19.8374 104.651H10.7563V48.699Z" fill="#1665FA"/>
</g>
<defs>
<linearGradient id="paint0_linear_114_308" x1="43.0931" y1="3.60524" x2="37.998" y2="12.4303" gradientUnits="userSpaceOnUse">
<stop stop-color="#FE62BE"/>
<stop offset="1" stop-color="#FDB3A8"/>
</linearGradient>
<linearGradient id="paint1_linear_114_308" x1="6.10011" y1="8.12823" x2="12.6503" y2="15.9345" gradientUnits="userSpaceOnUse">
<stop stop-color="#FE62BE"/>
<stop offset="1" stop-color="#FDB3A8"/>
</linearGradient>
</defs>
</svg>
