<svg width="55" height="115" viewBox="0 0 55 115" fill="none" xmlns="http://www.w3.org/2000/svg">
<path fill-rule="evenodd" clip-rule="evenodd" d="M0.282227 44.7815C6.7702 41.9995 14.2939 44.8861 17.2562 51.2937L19.319 55.7558C12.831 58.5377 5.30731 55.6512 2.34504 49.2435L0.282227 44.7815Z" fill="#65E09C"/>
<path fill-rule="evenodd" clip-rule="evenodd" d="M9.46104 47.7167C15.872 52.073 20.0293 56.9275 21.9451 62.2792C23.8702 67.657 24.6589 76.6721 24.3007 89.3066C24.2952 89.5023 24.4554 89.6652 24.6585 89.6707C24.8617 89.6759 25.0308 89.5216 25.0364 89.326C25.3968 76.6129 24.6018 67.5262 22.6408 62.0482C20.6704 56.5439 16.4145 51.5742 9.8853 47.1376C9.71925 47.0248 9.48967 47.0629 9.37251 47.2229C9.25535 47.3828 9.29499 47.6039 9.46104 47.7167Z" fill="#28C76F"/>
<path fill-rule="evenodd" clip-rule="evenodd" d="M54.7808 41.7935C48.3937 38.9251 40.8837 41.6571 37.8325 47.9588L35.495 52.7864C41.882 55.6547 49.392 52.9228 52.4433 46.6211L54.7808 41.7935Z" fill="#65E09C"/>
<path fill-rule="evenodd" clip-rule="evenodd" d="M4.51758 30.03C10.6135 28.7343 16.6056 32.6256 17.9014 38.7216L18.7971 42.9357C12.7012 44.2314 6.70904 40.3401 5.41331 34.2441L4.51758 30.03Z" fill="#65E09C"/>
<path fill-rule="evenodd" clip-rule="evenodd" d="M8.95572 33.7562C13.6146 36.8515 16.7542 40.2063 18.3831 43.8169L18.4831 44.0441L18.5838 44.2833C20.2499 48.3246 22.9701 58.9247 26.7298 76.0432C26.7717 76.2344 26.9667 76.3541 27.1652 76.3106C27.3637 76.2671 27.4906 76.0769 27.4486 75.8857L26.9828 73.774L26.4382 71.33C23.0387 56.1626 20.5826 46.9058 19.0574 43.5249C17.3696 39.7836 14.1404 36.3331 9.37829 33.1693C9.2123 33.059 8.98314 33.101 8.86645 33.2631C8.74976 33.4252 8.78973 33.646 8.95572 33.7562Z" fill="#28C76F"/>
<path fill-rule="evenodd" clip-rule="evenodd" d="M45.5596 26.3884C38.8377 26.2754 33.2946 31.6282 33.1728 38.3499L33.079 43.525C39.8008 43.638 45.3439 38.2852 45.4658 31.5635L45.5596 26.3884Z" fill="#65E09C"/>
<path fill-rule="evenodd" clip-rule="evenodd" d="M41.1507 28.6901C36.8289 34.746 33.6711 40.5913 31.6786 46.2266C29.6895 51.8522 27.7056 60.5398 25.7236 72.2962C25.691 72.4894 25.8272 72.6715 26.0278 72.7028C26.2284 72.7342 26.4174 72.603 26.45 72.4098L26.6936 70.9804L26.8608 70.0173C28.6999 59.5045 30.5389 51.6486 32.3752 46.4551C34.3448 40.8847 37.4717 35.0965 41.7572 29.0915C41.8723 28.9302 41.8298 28.7096 41.6624 28.5987C41.4949 28.4879 41.2658 28.5288 41.1507 28.6901Z" fill="#28C76F"/>
<path fill-rule="evenodd" clip-rule="evenodd" d="M31.7892 24.7234C29.4526 31.0792 27.768 38.9384 26.7352 48.3009C25.7024 57.6633 25.4873 67.0258 26.0899 76.3883L27.8001 76.5368C27.1878 65.6094 27.2494 56.2182 27.9848 48.363C28.7203 40.5079 30.2734 32.6528 32.6443 24.7976L31.7892 24.7234Z" fill="#02B596"/>
<path fill-rule="evenodd" clip-rule="evenodd" d="M31.491 28.0217C34.5145 28.7477 37.5765 26.9758 38.3304 24.0639C39.0842 21.1521 36.8593 12.2671 35.6452 11.9756C34.4311 11.684 28.1354 18.5231 27.3816 21.4349C26.6277 24.3467 28.4676 27.2958 31.491 28.0217Z" fill="#65E09C"/>
<path fill-rule="evenodd" clip-rule="evenodd" d="M32.33 25.7293C34.4332 26.2344 36.5748 24.9577 37.1132 22.8778C37.6517 20.798 35.6512 15.4156 34.8066 15.2128C33.962 15.01 30.0351 18.9691 29.4967 21.049C28.9582 23.1288 30.2267 25.2243 32.33 25.7293Z" fill="#28C76F"/>
<path fill-rule="evenodd" clip-rule="evenodd" d="M33.2039 25.2346L36.3574 15.8369C36.5449 15.2782 36.2266 14.6789 35.6465 14.4983C35.0664 14.3178 34.4441 14.6243 34.2566 15.183L31.1031 24.5807C30.9156 25.1394 31.2339 25.7387 31.814 25.9193C32.3942 26.0998 33.0164 25.7933 33.2039 25.2346Z" fill="url(#paint0_linear_114_333)"/>
<path fill-rule="evenodd" clip-rule="evenodd" d="M14.8215 15.2675C17.8096 21.3443 20.3065 28.9843 22.3123 38.1875C24.3181 47.3908 25.5107 56.6795 25.89 66.0536L24.2047 66.3801C23.6714 55.4486 22.6285 46.1152 21.076 38.38C19.5235 30.6448 17.1578 22.995 13.9789 15.4307L14.8215 15.2675Z" fill="#28C76F"/>
<path fill-rule="evenodd" clip-rule="evenodd" d="M15.4624 18.5165C12.5314 19.5546 9.30088 18.1124 8.24681 15.2953C7.19273 12.4782 8.4767 3.40934 9.65368 2.99249C10.8307 2.57565 17.8067 8.71916 18.8608 11.5362C19.9149 14.3533 18.3934 17.4785 15.4624 18.5165Z" fill="#65E09C"/>
<path fill-rule="evenodd" clip-rule="evenodd" d="M14.3888 16.3246C12.3498 17.0467 10.0866 16.0009 9.33366 13.9887C8.58074 11.9765 10.0076 6.41454 10.8264 6.12455C11.6452 5.83458 15.9644 9.36152 16.7173 11.3737C17.4702 13.3859 16.4277 15.6025 14.3888 16.3246Z" fill="#28C76F"/>
<path fill-rule="evenodd" clip-rule="evenodd" d="M13.4678 15.9239L9.34921 6.90729C9.10436 6.37125 9.35828 5.74198 9.91635 5.50178C10.4744 5.26157 11.1253 5.5014 11.3702 6.03744L15.4887 15.054C15.7336 15.5901 15.4797 16.2193 14.9216 16.4595C14.3635 16.6997 13.7126 16.4599 13.4678 15.9239Z" fill="url(#paint1_linear_114_333)"/>
<path fill-rule="evenodd" clip-rule="evenodd" d="M51.3069 43.299C42.5815 46.5593 36.4974 50.327 33.0572 54.6162C29.6174 58.9049 27.3444 65.5563 26.2234 74.5716C26.1992 74.766 26.3432 74.9424 26.5449 74.9656C26.7467 74.9889 26.9299 74.8502 26.9541 74.6559C28.0607 65.7564 30.2942 59.2204 33.6396 55.0494C36.9847 50.8788 42.9616 47.1775 51.5731 43.9598C51.7625 43.889 51.8565 43.6837 51.783 43.5012C51.7095 43.3187 51.4963 43.2282 51.3069 43.299Z" fill="#28C76F"/>
<path fill-rule="evenodd" clip-rule="evenodd" d="M29 69C26.3059 60.3825 19.6392 57.3346 9 59.8563C16.9656 62.1929 22.9795 65.2408 27.0418 69H29Z" fill="#28C76F"/>
<path fill-rule="evenodd" clip-rule="evenodd" d="M28 67C30.9232 57.8302 37.2565 53.9157 47 55.2566C41.0823 59.5385 35.4572 63.453 30.1247 67H28Z" fill="#28C76F"/>
<path fill-rule="evenodd" clip-rule="evenodd" d="M28.5277 70.3811C26.0483 62.0671 27.7003 54.3318 33.4836 47.1753C33.1905 57.0216 32.0389 64.4533 30.029 69.4703L28.5277 70.3811Z" fill="#28C76F"/>
<path fill-rule="evenodd" clip-rule="evenodd" d="M24.649 68C22.9522 63.2009 21.2645 56.4978 20 50C26.2506 52.4605 28.2584 62.263 26.2506 68H24.649Z" fill="#65E09C"/>
<path d="M14.2627 62.0225H36.5893C37.7027 62.0225 38.6053 62.9251 38.6053 64.0385C38.6053 64.0989 38.6026 64.1593 38.5972 64.2195L34.186 113.139C34.0923 114.178 33.2214 114.974 32.1781 114.974H18.6739C17.6306 114.974 16.7597 114.178 16.666 113.139L12.2549 64.2195C12.1549 63.1106 12.9727 62.1306 14.0817 62.0306C14.1419 62.0252 14.2023 62.0225 14.2627 62.0225Z" fill="#FFC83B"/>
<mask id="mask0_114_333" style="mask-type:alpha" maskUnits="userSpaceOnUse" x="12" y="62" width="27" height="53">
<path d="M14.2627 62.0225H36.5893C37.7027 62.0225 38.6053 62.9251 38.6053 64.0385C38.6053 64.0989 38.6026 64.1593 38.5972 64.2195L34.186 113.139C34.0923 114.178 33.2214 114.974 32.1781 114.974H18.6739C17.6306 114.974 16.7597 114.178 16.666 113.139L12.2549 64.2195C12.1549 63.1106 12.9727 62.1306 14.0817 62.0306C14.1419 62.0252 14.2023 62.0225 14.2627 62.0225Z" fill="#8B81EB"/>
</mask>
<g mask="url(#mask0_114_333)">
<path fill-rule="evenodd" clip-rule="evenodd" d="M8.68408 61.062H18.5585C12.4395 83.5753 30.8598 92.9558 18.5585 115.469H8.68408V61.062Z" fill="#1665FA"/>
</g>
<defs>
<linearGradient id="paint0_linear_114_333" x1="34.7313" y1="13.6785" x2="34.7313" y2="25.9711" gradientUnits="userSpaceOnUse">
<stop stop-color="#FE62BE"/>
<stop offset="1" stop-color="#FDB3A8"/>
</linearGradient>
<linearGradient id="paint1_linear_114_333" x1="10.7408" y1="4.59077" x2="12.0257" y2="16.816" gradientUnits="userSpaceOnUse">
<stop stop-color="#FE62BE"/>
<stop offset="1" stop-color="#FDB3A8"/>
</linearGradient>
</defs>
</svg>
