<svg width="112" height="6" viewBox="0 0 112 6" fill="none" xmlns="http://www.w3.org/2000/svg">
<path d="M2.78419 2.00757C3.46226 2.00757 3.7191 2.59869 3.7191 3.30134V5.79965H5.56838V3.05597C5.56838 1.41645 4.68484 0.0557658 2.78419 0.0557658C0.883544 0.0557658 0 1.41645 0 3.05597V5.79965H1.84928V3.30134C1.84928 2.59869 2.10612 2.00757 2.78419 2.00757Z" fill="#202630"/>
<path d="M19.6393 5.9558C20.79 5.9558 21.6633 5.33122 22.105 4.29397L20.6873 3.5244C20.5023 3.95938 20.1119 4.24936 19.6188 4.24936C19.0537 4.24936 18.6633 3.91477 18.54 3.35711H22.1153V2.85521C22.1153 1.36069 21.1804 0 19.4955 0C17.8723 0 16.7627 1.33838 16.7627 2.94444C16.7627 4.77356 17.9955 5.9558 19.6393 5.9558ZM18.6222 2.31986C18.7353 1.99642 19.0332 1.71759 19.475 1.71759C19.9065 1.71759 20.1941 2.00757 20.2763 2.31986H18.6222Z" fill="#202630"/>
<path d="M35.3999 5.9781C36.0471 5.9781 36.5916 5.53198 36.7971 4.63972L37.3724 2.16372L37.958 4.63972C38.1635 5.53198 38.6977 5.9781 39.345 5.9781C39.9614 5.9781 40.6908 5.55428 40.8758 4.63972L41.7799 0.223064H40.0744L39.3655 3.82554L38.7799 1.36069C38.5744 0.479587 38.1019 0.0446128 37.3827 0.0446128C36.6635 0.0446128 36.1807 0.49074 35.9649 1.38299L35.3793 3.83669L34.6293 0.223064H32.9033L33.8691 4.63972C34.0643 5.55428 34.7834 5.9781 35.3999 5.9781Z" fill="#202630"/>
<path d="M59.1349 0C58.2514 0 57.5116 0.412668 57.1726 1.09301C56.8541 0.412668 56.1555 0 55.1898 0C53.4227 0 52.57 1.33838 52.57 2.88867V5.79965H54.4192V3.23442C54.4192 2.53177 54.6555 1.95181 55.3336 1.95181C56.0117 1.95181 56.2377 2.53177 56.2377 3.23442V5.79965H58.087V3.23442C58.087 2.53177 58.313 1.95181 58.9911 1.95181C59.6691 1.95181 59.9054 2.53177 59.9054 3.23442V5.79965H61.7547V2.88867C61.7547 1.33838 60.902 0 59.1349 0Z" fill="#202630"/>
<path d="M75.8312 5.9558C76.9819 5.9558 77.8551 5.33122 78.2969 4.29397L76.8791 3.5244C76.6942 3.95938 76.3038 4.24936 75.8107 4.24936C75.2456 4.24936 74.8552 3.91477 74.7319 3.35711H78.3072V2.85521C78.3072 1.36069 77.3723 0 75.6874 0C74.0641 0 72.9546 1.33838 72.9546 2.94444C72.9546 4.77356 74.1874 5.9558 75.8312 5.9558ZM74.8141 2.31986C74.9271 1.99642 75.2251 1.71759 75.6668 1.71759C76.0983 1.71759 76.386 2.00757 76.4682 2.31986H74.8141Z" fill="#202630"/>
<path d="M92.3907 2.00757C93.0687 2.00757 93.3256 2.59869 93.3256 3.30134V5.79965H95.1749V3.05597C95.1749 1.41645 94.2913 0.0557658 92.3907 0.0557658C90.49 0.0557658 89.6065 1.41645 89.6065 3.05597V5.79965H91.4558V3.30134C91.4558 2.59869 91.7126 2.00757 92.3907 2.00757Z" fill="#202630"/>
<path d="M109.174 4.01514C108.578 4.01514 108.321 3.42403 108.321 2.72138V0.223064H106.472V2.96675C106.472 4.60626 107.355 5.96695 109.174 5.96695C110.992 5.96695 111.876 4.60626 111.876 2.96675V0.223064H110.027V2.72138C110.027 3.42403 109.77 4.01514 109.174 4.01514Z" fill="#202630"/>
</svg>
