<svg width="117" height="47" viewBox="0 0 117 47" fill="none" xmlns="http://www.w3.org/2000/svg">
<path d="M27.6507 8.69467C27.6507 8.69467 27.6218 8.67802 27.6097 8.63267C27.5278 8.50868 27.4459 8.38468 27.364 8.26068C27.323 8.19869 27.2821 8.13669 27.2411 8.07469C27.1425 7.97939 27.0606 7.85539 26.9787 7.7314C26.921 7.6981 26.8801 7.6361 26.8103 7.55745C26.7405 7.47881 26.6419 7.38351 26.5432 7.28821C26.4735 7.20956 26.4325 7.14756 26.346 7.09762C26.2762 7.01897 26.1609 6.95237 26.0911 6.87372C25.9757 6.80712 25.9059 6.72848 25.8194 6.67853C25.7496 6.59988 25.6631 6.54993 25.5766 6.49998C25.4613 6.43338 25.3915 6.35473 25.2761 6.28814C25.2473 6.27149 25.1896 6.23819 25.1608 6.22154C25.1031 6.18824 25.0576 6.20029 24.9999 6.16699C24.8845 6.10039 24.798 6.05044 24.7115 6.00049C24.5795 5.96259 24.4929 5.91264 24.3776 5.84604C24.3032 5.84144 24.2167 5.7915 24.1135 5.77025C23.9981 5.70365 23.866 5.66575 23.7628 5.6445C23.6596 5.62325 23.6019 5.58995 23.4987 5.5687C23.3955 5.54745 23.2634 5.50955 23.1146 5.50035C23.0569 5.46705 22.9537 5.4458 22.8793 5.4412C22.7593 5.44865 22.6273 5.41075 22.5073 5.4182C22.4041 5.39695 22.3009 5.3757 22.2265 5.37109C22.1065 5.37854 21.9866 5.38599 21.8833 5.36474C21.7634 5.37219 21.6434 5.37964 21.5235 5.38709C21.4491 5.38249 21.358 5.40659 21.2547 5.38534C21.1181 5.42148 20.9981 5.42893 20.8782 5.43638C20.7871 5.46048 20.7127 5.45588 20.6504 5.49663C20.5137 5.53278 20.3938 5.54023 20.2571 5.57637C20.166 5.60047 20.0749 5.62457 19.9837 5.64867C19.8926 5.67277 19.756 5.70891 19.6481 5.76171C19.557 5.78581 19.4659 5.80991 19.358 5.86271C19.2669 5.8868 19.1591 5.9396 19.0513 5.9924C18.9434 6.0452 18.8644 6.11464 18.7566 6.16744C18.711 6.17949 18.6488 6.22024 18.6032 6.23229C18.5576 6.24434 18.5409 6.27304 18.4954 6.28509C18.3708 6.36658 18.2918 6.43603 18.184 6.48883C18.105 6.55827 17.9971 6.61107 17.9349 6.65182C17.8559 6.72127 17.7769 6.79071 17.6811 6.88886C17.5733 6.94165 17.4943 7.0111 17.4153 7.08055C17.3363 7.15 17.2861 7.23609 17.2239 7.27684C17.1281 7.37499 17.0324 7.47313 16.9367 7.57128C16.9033 7.62868 16.841 7.66942 16.7908 7.75552C16.6951 7.85367 16.5994 7.95181 16.5158 8.09531C16.4823 8.1527 16.4489 8.2101 16.3866 8.25085C16.3197 8.36565 16.2361 8.50914 16.1525 8.65263C16.1358 8.68133 16.1358 8.68133 16.1191 8.71003L3.45504 30.7766C1.64458 33.9501 2.75171 38.0028 5.94046 39.8056C9.12921 41.6083 13.2005 40.5073 15.011 37.3337L21.8302 25.4311C24.0391 21.3754 28.1754 18.5092 32.9948 18.1085L27.6507 8.69467Z" fill="url(#paint0_linear_305_226)"/>
<path d="M16.0854 8.69079C16.0854 8.69079 16.1143 8.67414 16.1264 8.6288C16.2083 8.5048 16.2902 8.3808 16.3721 8.25681C16.413 8.19481 16.454 8.13281 16.4949 8.07081C16.5936 7.97552 16.6755 7.85152 16.7574 7.72752C16.8151 7.69422 16.856 7.63223 16.9258 7.55358C16.9956 7.47493 17.0942 7.37963 17.1928 7.28433C17.2626 7.20569 17.3036 7.14369 17.3901 7.09374C17.4599 7.01509 17.5752 6.94849 17.645 6.86985C17.7604 6.80325 17.8301 6.7246 17.9167 6.67465C17.9864 6.596 18.073 6.54605 18.1595 6.49611C18.2748 6.42951 18.3446 6.35086 18.4599 6.28426C18.4888 6.26761 18.5465 6.23431 18.5753 6.21766C18.633 6.18436 18.6785 6.19641 18.7362 6.16311C18.8515 6.09651 18.9381 6.04656 19.0246 5.99662C19.1566 5.95872 19.2431 5.90877 19.3585 5.84217C19.4329 5.83757 19.5194 5.78762 19.6226 5.76637C19.738 5.69977 19.87 5.66187 19.9733 5.64062C20.0765 5.61937 20.1342 5.58607 20.2374 5.56482C20.3406 5.54357 20.4727 5.50567 20.6215 5.49647C20.6792 5.46317 20.7824 5.44192 20.8568 5.43732C20.9767 5.44477 21.1088 5.40687 21.2288 5.41432C21.332 5.39307 21.4352 5.37182 21.5096 5.36722C21.6296 5.37467 21.7495 5.38212 21.8527 5.36087C21.9727 5.36832 22.0926 5.37576 22.2126 5.38321C22.287 5.37861 22.3781 5.40271 22.4813 5.38146C22.618 5.41761 22.738 5.42506 22.8579 5.43251C22.949 5.4566 23.0234 5.452 23.0857 5.49275C23.2224 5.5289 23.3423 5.53635 23.479 5.5725C23.5701 5.5966 23.6612 5.62069 23.7523 5.64479C23.8435 5.66889 23.9801 5.70504 24.088 5.75784C24.1791 5.78193 24.2702 5.80603 24.378 5.85883C24.4691 5.88293 24.577 5.93573 24.6848 5.98852C24.7927 6.04132 24.8717 6.11077 24.9795 6.16356C25.025 6.17561 25.0873 6.21636 25.1329 6.22841C25.1784 6.24046 25.1952 6.26916 25.2407 6.28121C25.3653 6.36271 25.4443 6.43215 25.5521 6.48495C25.6311 6.5544 25.7389 6.60719 25.8012 6.64794C25.8802 6.71739 25.9592 6.78684 26.0549 6.88498C26.1628 6.93778 26.2418 7.00723 26.3208 7.07667C26.3998 7.14612 26.4499 7.23222 26.5122 7.27296C26.6079 7.37111 26.7037 7.46926 26.7994 7.5674C26.8328 7.6248 26.8951 7.66555 26.9453 7.75164C27.041 7.84979 27.1367 7.94794 27.2203 8.09143C27.2538 8.14883 27.2872 8.20623 27.3495 8.24697C27.4164 8.36177 27.5 8.50526 27.5836 8.64876C27.6003 8.67746 27.6003 8.67746 27.617 8.70616L40.2764 30.6987C42.0869 33.8722 40.9798 37.9249 37.791 39.7276C34.6023 41.5304 30.5309 40.4293 28.7205 37.2558L21.9058 25.4273C19.697 21.3715 15.5607 18.5054 10.7413 18.1047L16.0854 8.69079Z" fill="url(#paint1_linear_305_226)"/>
<path d="M28.7046 37.3331C28.7046 37.3331 28.7335 37.3497 28.7456 37.395C28.8275 37.519 28.9093 37.6429 28.9912 37.7669C29.0322 37.8289 29.0731 37.8908 29.1141 37.9528C29.2127 38.0481 29.2946 38.172 29.3765 38.296C29.4341 38.3293 29.4751 38.3912 29.5448 38.4699C29.6146 38.5485 29.7132 38.6437 29.8119 38.739C29.8816 38.8176 29.9226 38.8796 30.0091 38.9295C30.0789 39.0081 30.1942 39.0747 30.264 39.1533C30.3793 39.2199 30.4491 39.2985 30.5356 39.3484C30.6054 39.427 30.6919 39.4769 30.7784 39.5268C30.8938 39.5934 30.9636 39.672 31.0789 39.7386C31.1077 39.7552 31.1654 39.7885 31.1942 39.8051C31.2519 39.8384 31.2975 39.8264 31.3552 39.8596C31.4705 39.9262 31.557 39.9761 31.6435 40.026C31.7756 40.0639 31.8621 40.1138 31.9774 40.1804C32.0518 40.185 32.1384 40.2349 32.2416 40.2561C32.3569 40.3227 32.489 40.3605 32.5923 40.3818C32.6955 40.403 32.7532 40.4363 32.8564 40.4575C32.9596 40.4787 33.0917 40.5166 33.2405 40.5257C33.2982 40.559 33.4014 40.5802 33.4758 40.5848C33.5958 40.5773 33.7279 40.6152 33.8478 40.6077C33.9511 40.629 34.0543 40.6502 34.1287 40.6548C34.2487 40.6473 34.3687 40.6398 34.4719 40.661C34.5919 40.6536 34.7118 40.6461 34.8318 40.6386C34.9062 40.6432 34.9973 40.6191 35.1006 40.6403C35.2373 40.6041 35.3572 40.5967 35.4772 40.5892C35.5683 40.5651 35.6427 40.5696 35.705 40.5289C35.8417 40.4927 35.9617 40.4853 36.0984 40.4491C36.1895 40.425 36.2807 40.4009 36.3718 40.3767C36.4629 40.3526 36.5996 40.3165 36.7075 40.2636C36.7986 40.2395 36.8897 40.2154 36.9976 40.1626C37.0887 40.1385 37.1966 40.0857 37.3045 40.0329C37.4123 39.9801 37.4913 39.9106 37.5992 39.8578C37.6448 39.8457 37.7071 39.805 37.7526 39.7929C37.7982 39.7809 37.8149 39.7522 37.8605 39.7401C37.9851 39.6586 38.0641 39.5892 38.172 39.5363C38.251 39.4669 38.3589 39.4141 38.4212 39.3733C38.5002 39.3039 38.5792 39.2344 38.675 39.1363C38.7828 39.0835 38.8618 39.014 38.9409 38.9446C39.0199 38.8751 39.0701 38.789 39.1324 38.7483C39.2281 38.6501 39.3239 38.552 39.4196 38.4538C39.4531 38.3964 39.5154 38.3557 39.5656 38.2696C39.6613 38.1714 39.7571 38.0733 39.8407 37.9298C39.8742 37.8724 39.9077 37.815 39.9699 37.7743C40.0369 37.6595 40.1205 37.516 40.2042 37.3725C40.2209 37.3438 40.2209 37.3438 40.2376 37.3151L52.9082 15.2501C54.7196 12.0769 53.6132 8.02525 50.4245 6.22356C47.2358 4.42187 43.1637 5.52364 41.3523 8.69693L34.5295 20.5986C32.3195 24.6541 28.182 27.5206 23.362 27.9223L28.7046 37.3331Z" fill="url(#paint2_linear_305_226)"/>
<path d="M75.5526 8.69467C75.5526 8.69467 75.5237 8.67802 75.5115 8.63267C75.4294 8.50868 75.3473 8.38468 75.2651 8.26068C75.2241 8.19869 75.183 8.13669 75.1419 8.07469C75.043 7.97939 74.9609 7.8554 74.8788 7.7314C74.8209 7.6981 74.7799 7.6361 74.7099 7.55745C74.6399 7.47881 74.541 7.38351 74.4421 7.28821C74.3721 7.20956 74.331 7.14757 74.2443 7.09762C74.1743 7.01897 74.0586 6.95237 73.9887 6.87372C73.873 6.80712 73.803 6.72848 73.7163 6.67853C73.6463 6.59988 73.5595 6.54993 73.4728 6.49998C73.3571 6.43338 73.2871 6.35473 73.1714 6.28814C73.1425 6.27149 73.0847 6.23819 73.0558 6.22154C72.9979 6.18824 72.9523 6.20029 72.8944 6.16699C72.7788 6.10039 72.692 6.05044 72.6053 6.00049C72.4728 5.96259 72.3861 5.91264 72.2704 5.84604C72.1958 5.84144 72.1091 5.7915 72.0055 5.77025C71.8899 5.70365 71.7574 5.66575 71.6539 5.6445C71.5504 5.62325 71.4926 5.58995 71.389 5.5687C71.2855 5.54745 71.1531 5.50955 71.0039 5.50035C70.946 5.46705 70.8425 5.4458 70.7679 5.4412C70.6476 5.44865 70.5152 5.41075 70.3949 5.4182C70.2914 5.39695 70.1879 5.3757 70.1133 5.3711C69.993 5.37854 69.8727 5.38599 69.7692 5.36474C69.6489 5.37219 69.5286 5.37964 69.4083 5.38709C69.3337 5.38249 69.2424 5.40659 69.1388 5.38534C69.0018 5.42148 68.8815 5.42893 68.7612 5.43638C68.6698 5.46048 68.5952 5.45588 68.5328 5.49663C68.3957 5.53278 68.2755 5.54023 68.1384 5.57637C68.047 5.60047 67.9557 5.62457 67.8643 5.64867C67.7729 5.67277 67.6359 5.70891 67.5277 5.76171C67.4364 5.78581 67.345 5.80991 67.2369 5.86271C67.1455 5.8868 67.0374 5.9396 66.9292 5.9924C66.8211 6.0452 66.7419 6.11464 66.6337 6.16744C66.588 6.17949 66.5256 6.22024 66.4799 6.23229C66.4342 6.24434 66.4175 6.27304 66.3718 6.28509C66.2469 6.36658 66.1676 6.43603 66.0595 6.48883C65.9803 6.55827 65.8722 6.61107 65.8097 6.65182C65.7305 6.72127 65.6513 6.79071 65.5553 6.88886C65.4471 6.94165 65.3679 7.0111 65.2887 7.08055C65.2095 7.15 65.1592 7.23609 65.0967 7.27684C65.0007 7.37499 64.9047 7.47313 64.8088 7.57128C64.7752 7.62868 64.7128 7.66942 64.6625 7.75552C64.5665 7.85367 64.4705 7.95181 64.3867 8.09531C64.3531 8.1527 64.3196 8.2101 64.2571 8.25085C64.1901 8.36565 64.1062 8.50914 64.0224 8.65263C64.0056 8.68133 64.0056 8.68133 63.9889 8.71003L51.2895 30.7766C49.474 33.9501 50.5842 38.0028 53.7819 39.8056C56.9795 41.6083 61.0622 40.5073 62.8777 37.3337L69.7159 25.4311C71.931 21.3754 76.0788 18.5092 80.9116 18.1085L75.5526 8.69467Z" fill="url(#paint3_linear_305_226)"/>
<path d="M63.9551 8.6908C63.9551 8.6908 63.984 8.67415 63.9962 8.6288C64.0783 8.5048 64.1604 8.3808 64.2426 8.25681C64.2836 8.19481 64.3247 8.13281 64.3658 8.07081C64.4647 7.97552 64.5468 7.85152 64.6289 7.72752C64.6868 7.69422 64.7278 7.63223 64.7978 7.55358C64.8678 7.47493 64.9667 7.37963 65.0656 7.28434C65.1356 7.20569 65.1766 7.14369 65.2634 7.09374C65.3334 7.01509 65.449 6.94849 65.519 6.86985C65.6347 6.80325 65.7047 6.7246 65.7914 6.67465C65.8614 6.596 65.9482 6.54605 66.0349 6.49611C66.1506 6.42951 66.2206 6.35086 66.3362 6.28426C66.3652 6.26761 66.423 6.23431 66.4519 6.21766C66.5097 6.18436 66.5554 6.19641 66.6133 6.16311C66.7289 6.09651 66.8157 6.04657 66.9024 5.99662C67.0349 5.95872 67.1216 5.90877 67.2373 5.84217C67.3119 5.83757 67.3986 5.78762 67.5022 5.76637C67.6178 5.69977 67.7503 5.66187 67.8538 5.64062C67.9573 5.61937 68.0151 5.58607 68.1187 5.56482C68.2222 5.54357 68.3546 5.50567 68.5038 5.49647C68.5616 5.46317 68.6652 5.44192 68.7398 5.43732C68.86 5.44477 68.9925 5.40687 69.1128 5.41432C69.2163 5.39307 69.3198 5.37182 69.3944 5.36722C69.5147 5.37467 69.635 5.38212 69.7385 5.36087C69.8588 5.36832 69.9791 5.37576 70.0994 5.38321C70.174 5.37861 70.2653 5.40271 70.3688 5.38146C70.5059 5.41761 70.6262 5.42506 70.7465 5.43251C70.8378 5.45661 70.9124 5.452 70.9749 5.49275C71.1119 5.5289 71.2322 5.53635 71.3693 5.5725C71.4607 5.5966 71.552 5.62069 71.6434 5.64479C71.7348 5.66889 71.8718 5.70504 71.98 5.75784C72.0713 5.78193 72.1627 5.80603 72.2708 5.85883C72.3622 5.88293 72.4703 5.93573 72.5785 5.98852C72.6866 6.04132 72.7658 6.11077 72.874 6.16357C72.9196 6.17561 72.9821 6.21636 73.0278 6.22841C73.0735 6.24046 73.0902 6.26916 73.1359 6.28121C73.2608 6.36271 73.34 6.43215 73.4482 6.48495C73.5274 6.5544 73.6355 6.60719 73.698 6.64794C73.7772 6.71739 73.8564 6.78684 73.9524 6.88498C74.0606 6.93778 74.1398 7.00723 74.219 7.07667C74.2982 7.14612 74.3485 7.23222 74.411 7.27296C74.507 7.37111 74.6029 7.46926 74.6989 7.5674C74.7325 7.6248 74.7949 7.66555 74.8452 7.75164C74.9412 7.84979 75.0372 7.94794 75.121 8.09143C75.1546 8.14883 75.1881 8.20623 75.2506 8.24697C75.3176 8.36177 75.4015 8.50526 75.4853 8.64876C75.5021 8.67746 75.5021 8.67746 75.5188 8.70616L88.2136 30.6987C90.0291 33.8722 88.9189 37.9249 85.7212 39.7276C82.5236 41.5304 78.4409 40.4293 76.6254 37.2558L69.7918 25.4273C67.5767 21.3715 63.4289 18.5054 58.5961 18.1047L63.9551 8.6908Z" fill="url(#paint4_linear_305_226)"/>
<path d="M76.6096 37.3331C76.6096 37.3331 76.6385 37.3497 76.6506 37.395C76.7328 37.519 76.8149 37.6429 76.897 37.7669C76.938 37.8289 76.9791 37.8908 77.0202 37.9528C77.119 38.0481 77.2012 38.172 77.2833 38.296C77.3411 38.3293 77.3822 38.3912 77.4521 38.4699C77.5221 38.5485 77.621 38.6437 77.7199 38.739C77.7899 38.8176 77.8309 38.8796 77.9177 38.9295C77.9877 39.0081 78.1033 39.0747 78.1733 39.1533C78.289 39.2199 78.3589 39.2985 78.4457 39.3484C78.5157 39.427 78.6024 39.4769 78.6892 39.5268C78.8048 39.5934 78.8748 39.672 78.9905 39.7386C79.0194 39.7552 79.0772 39.7885 79.1061 39.8051C79.164 39.8384 79.2097 39.8264 79.2675 39.8596C79.3832 39.9262 79.4699 39.9761 79.5567 40.026C79.6891 40.0639 79.7759 40.1138 79.8915 40.1804C79.9661 40.185 80.0529 40.2349 80.1564 40.2561C80.2721 40.3227 80.4045 40.3605 80.508 40.3818C80.6116 40.403 80.6694 40.4363 80.7729 40.4575C80.8765 40.4787 81.0089 40.5166 81.1581 40.5257C81.216 40.559 81.3195 40.5802 81.3941 40.5848C81.5144 40.5773 81.6468 40.6152 81.7671 40.6077C81.8707 40.6289 81.9742 40.6502 82.0488 40.6548C82.1691 40.6473 82.2894 40.6398 82.3929 40.661C82.5132 40.6536 82.6335 40.6461 82.7538 40.6386C82.8284 40.6432 82.9198 40.6191 83.0234 40.6403C83.1604 40.6041 83.2807 40.5967 83.401 40.5892C83.4924 40.5651 83.567 40.5696 83.6295 40.5289C83.7666 40.4927 83.8869 40.4853 84.024 40.4491C84.1154 40.425 84.2067 40.4009 84.2981 40.3767C84.3895 40.3526 84.5266 40.3165 84.6347 40.2636C84.7261 40.2395 84.8175 40.2154 84.9257 40.1626C85.0171 40.1385 85.1252 40.0857 85.2334 40.0329C85.3416 39.9801 85.4208 39.9106 85.529 39.8578C85.5747 39.8457 85.6371 39.805 85.6828 39.7929C85.7285 39.7809 85.7453 39.7522 85.791 39.7401C85.9159 39.6586 85.9952 39.5892 86.1033 39.5363C86.1826 39.4669 86.2907 39.4141 86.3532 39.3733C86.4324 39.3039 86.5117 39.2344 86.6077 39.1363C86.7159 39.0835 86.7951 39.014 86.8744 38.9446C86.9536 38.8751 87.0039 38.789 87.0664 38.7483C87.1624 38.6501 87.2584 38.552 87.3545 38.4538C87.388 38.3964 87.4505 38.3557 87.5008 38.2696C87.5968 38.1714 87.6929 38.0733 87.7767 37.9298C87.8103 37.8724 87.8438 37.815 87.9063 37.7743C87.9734 37.6595 88.0573 37.516 88.1412 37.3725C88.158 37.3438 88.158 37.3438 88.1747 37.3151L100.881 15.2501C102.697 12.0769 101.588 8.02525 98.39 6.22356C95.1924 4.42187 91.109 5.52364 89.2925 8.69693L82.4507 20.5986C80.2345 24.6541 76.0855 27.5206 71.252 27.9223L76.6096 37.3331Z" fill="url(#paint5_linear_305_226)"/>
<path d="M89.2625 8.6609C89.2625 8.6609 89.2915 8.64426 89.3036 8.59892C89.3857 8.47497 89.4678 8.35102 89.5499 8.22706C89.591 8.16509 89.6321 8.10311 89.6731 8.04113C89.772 7.94588 89.8541 7.82192 89.9362 7.69797C89.9941 7.66469 90.0351 7.60271 90.1051 7.5241C90.1751 7.44548 90.274 7.35023 90.3729 7.25497C90.4428 7.17635 90.4839 7.11438 90.5706 7.06446C90.6406 6.98584 90.7563 6.91928 90.8262 6.84066C90.9419 6.77411 91.0119 6.69549 91.0986 6.64557C91.1686 6.56695 91.2554 6.51703 91.3421 6.46711C91.4578 6.40055 91.5278 6.32194 91.6434 6.25538C91.6723 6.23874 91.7302 6.20546 91.7591 6.18882C91.8169 6.15554 91.8626 6.1676 91.9204 6.13432C92.0361 6.06776 92.1229 6.01784 92.2096 5.96792C92.3421 5.93006 92.4288 5.88014 92.5445 5.81358C92.6191 5.80899 92.7058 5.75907 92.8094 5.73785C92.925 5.67129 93.0575 5.63343 93.161 5.61221C93.2645 5.59098 93.3224 5.5577 93.4259 5.53648C93.5294 5.51526 93.6619 5.4774 93.8111 5.46823C93.8689 5.43495 93.9724 5.41373 94.047 5.40914C94.1673 5.41662 94.2998 5.37876 94.4201 5.38623C94.5236 5.36501 94.6271 5.34378 94.7018 5.3392C94.8221 5.34668 94.9424 5.35415 95.0459 5.33293C95.1662 5.3404 95.2865 5.34788 95.4068 5.35535C95.4814 5.35077 95.5728 5.37488 95.6763 5.35366C95.8134 5.38983 95.9337 5.3973 96.054 5.40478C96.1454 5.42889 96.22 5.42431 96.2825 5.46506C96.4195 5.50123 96.5398 5.50871 96.6769 5.54488C96.7683 5.56899 96.8597 5.59311 96.9511 5.61722C97.0425 5.64133 97.1795 5.6775 97.2877 5.73032C97.3791 5.75443 97.4705 5.77854 97.5786 5.83135C97.67 5.85547 97.7782 5.90828 97.8863 5.96109C97.9945 6.0139 98.0738 6.08335 98.1819 6.13616C98.2276 6.14822 98.2901 6.18897 98.3358 6.20103C98.3815 6.21309 98.3982 6.24178 98.4439 6.25384C98.5689 6.33535 98.6481 6.4048 98.7563 6.45761C98.8355 6.52706 98.9437 6.57987 99.0062 6.62063C99.0854 6.69008 99.1646 6.75953 99.2607 6.85767C99.3688 6.91048 99.4481 6.97994 99.5273 7.04939C99.6066 7.11884 99.6569 7.20493 99.7194 7.24568C99.8154 7.34383 99.9114 7.44198 100.007 7.54012C100.041 7.59752 100.103 7.63827 100.154 7.72436C100.25 7.82251 100.346 7.92066 100.43 8.06414C100.463 8.12153 100.497 8.17893 100.559 8.21968C100.626 8.33447 100.71 8.47795 100.794 8.62144C100.811 8.65013 100.811 8.65013 100.828 8.67883L113.534 30.7438C115.35 33.9171 114.241 37.9687 111.043 39.7704C107.845 41.5721 103.762 40.4703 101.945 37.297L95.1037 25.3953C92.8875 21.3399 88.7385 18.4734 83.905 18.0717L89.2625 8.6609Z" fill="url(#paint6_linear_305_226)"/>
<defs>
<linearGradient id="paint0_linear_305_226" x1="20.2024" y1="15.41" x2="5.2522" y2="40.2971" gradientUnits="userSpaceOnUse">
<stop stop-color="#FFC83B"/>
<stop offset="1" stop-color="#C9346D"/>
</linearGradient>
<linearGradient id="paint1_linear_305_226" x1="23.5246" y1="15.3906" x2="31.9445" y2="29.0342" gradientUnits="userSpaceOnUse">
<stop stop-color="#FFC83B"/>
<stop offset="1" stop-color="#C9346D"/>
</linearGradient>
<linearGradient id="paint2_linear_305_226" x1="36.1553" y1="30.6174" x2="51.1006" y2="5.72455" gradientUnits="userSpaceOnUse">
<stop stop-color="#FFC83B"/>
<stop offset="1" stop-color="#C9346D"/>
</linearGradient>
<linearGradient id="paint3_linear_305_226" x1="68.0836" y1="15.41" x2="53.1529" y2="40.3338" gradientUnits="userSpaceOnUse">
<stop stop-color="#1665FA"/>
<stop offset="1" stop-color="#11254A"/>
</linearGradient>
<linearGradient id="paint4_linear_305_226" x1="71.415" y1="15.3906" x2="86.3193" y2="40.2721" gradientUnits="userSpaceOnUse">
<stop stop-color="#1665FA"/>
<stop offset="1" stop-color="#11254A"/>
</linearGradient>
<linearGradient id="paint5_linear_305_226" x1="84.081" y1="30.6174" x2="99.0067" y2="5.68787" gradientUnits="userSpaceOnUse">
<stop stop-color="#1665FA"/>
<stop offset="1" stop-color="#11254A"/>
</linearGradient>
<linearGradient id="paint6_linear_305_226" x1="96.734" y1="15.3765" x2="111.66" y2="40.3061" gradientUnits="userSpaceOnUse">
<stop stop-color="#1665FA"/>
<stop offset="1" stop-color="#11254A"/>
</linearGradient>
</defs>
</svg>
