<svg width="73" height="119" viewBox="0 0 73 119" fill="none" xmlns="http://www.w3.org/2000/svg">
<path d="M61.8471 118C80.8519 48.521 77.3471 37 13.3471 22" stroke="#777777" stroke-dasharray="5 5"/>
<path d="M9.61896 25.8213C9.71169 25.8462 9.78744 25.8416 9.84623 25.8077C9.90916 25.7583 9.95042 25.7279 9.97002 25.7166C10.0721 25.6446 10.1933 25.5943 10.3335 25.5656C10.4737 25.5369 10.5809 25.5076 10.6552 25.4778C10.7294 25.448 10.7594 25.3981 10.745 25.328C10.7378 25.2929 10.7158 25.2207 10.6788 25.1115C10.646 24.9867 10.5935 24.8733 10.5215 24.7712L9.92377 24.3128C9.16486 23.7451 8.32262 23.0556 7.39703 22.2444C7.21379 22.0628 6.96515 21.8471 6.6511 21.5973C6.24543 21.2567 5.9685 20.992 5.82031 20.8032C5.66081 20.5948 5.61778 20.3845 5.69121 20.1723C5.90181 19.8809 6.41848 19.6217 7.24121 19.395C8.06808 19.1527 9.11132 18.9684 10.3709 18.8422C10.8956 18.8005 11.3471 18.7227 11.7255 18.6088C12.0884 18.4907 12.2906 18.3544 12.332 18.1998C12.3651 18.0762 12.3127 17.9628 12.1747 17.8595C12.1438 17.8512 12.0707 17.8151 11.9553 17.751C11.8245 17.6829 11.6586 17.6219 11.4577 17.568C11.1177 17.4769 10.7225 17.4373 10.2721 17.4491L9.59028 17.49C9.13573 17.5173 8.8033 17.5525 8.593 17.5955C8.37138 17.619 8.12754 17.6944 7.86148 17.8219C7.2935 17.9016 6.80016 18.0427 6.38147 18.2453C5.96693 18.4323 5.51981 18.7101 5.04011 19.0785L3.96618 19.9337L3.66392 20.5981C3.78342 20.6467 3.94817 20.7736 4.15818 20.979C4.37233 21.1689 4.49279 21.2757 4.51955 21.2994C4.69451 21.512 4.9673 21.7921 5.33792 22.1399C5.71267 22.4722 6.19092 22.8819 6.77266 23.3691L7.13403 23.6896C7.71688 24.1108 8.13593 24.4632 8.39119 24.747C8.65059 25.0152 8.83383 25.1969 8.94091 25.2918C9.0397 25.4177 9.15602 25.5399 9.28986 25.6586C9.41239 25.7577 9.50663 25.8078 9.57259 25.8089L9.61896 25.8213Z" fill="#777777"/>
</svg>
